<?xml version="1.0" standalone="no"?>
<!DOCTYPE svg PUBLIC "-//W3C//DTD SVG 20010904//EN"
 "http://www.w3.org/TR/2001/REC-SVG-20010904/DTD/svg10.dtd">
<svg version="1.0" xmlns="http://www.w3.org/2000/svg"
 width="420.000000pt" height="120.000000pt" viewBox="0 0 420.000000 120.000000"
 preserveAspectRatio="xMidYMid meet">

<g transform="translate(0.000000,120.000000) scale(0.100000,-0.100000)"
fill="#000000" stroke="none">
<path d="M360 600 l0 -390 270 0 270 0 0 390 0 390 -270 0 -270 0 0 -390z
m360 198 c57 -100 140 -351 140 -424 0 -23 -3 -24 -70 -24 l-70 0 -6 40 -7 40
-68 0 c-75 0 -75 -1 -58 66 11 44 12 44 55 44 l44 0 -25 67 c-14 37 -27 68
-29 70 -7 7 -55 -136 -78 -230 l-23 -97 -67 0 c-80 0 -79 -2 -49 125 31 129
104 314 143 363 7 7 35 12 74 12 l64 0 30 -52z"/>
<path d="M950 600 l0 -390 270 0 270 0 0 390 0 390 -270 0 -270 0 0 -390z
m460 190 l0 -60 -60 0 -60 0 0 -190 0 -190 -70 0 -70 0 0 190 0 190 -60 0 -60
0 0 60 0 60 190 0 190 0 0 -60z"/>
<path d="M1540 600 l0 -390 270 0 270 0 0 390 0 390 -270 0 -270 0 0 -390z
m248 53 l2 -193 95 0 95 0 0 -55 0 -55 -170 0 -170 0 0 243 c0 134 3 247 7
251 4 4 37 6 73 4 l65 -3 3 -192z"/>
<path d="M2130 600 l0 -390 270 0 270 0 -2 387 -3 388 -267 3 -268 2 0 -390z
m362 195 c37 -67 85 -199 114 -314 35 -136 37 -131 -45 -131 -74 0 -80 6 -81
68 0 21 -4 22 -71 22 l-71 0 7 37 c12 65 22 75 66 71 44 -4 45 -3 5 87 l-22
49 -27 -71 c-14 -40 -36 -115 -49 -168 l-23 -95 -66 0 c-36 0 -68 3 -71 6 -8
7 44 202 82 306 17 46 44 107 61 136 l30 53 67 -3 67 -3 27 -50z"/>
<path d="M2720 600 l0 -390 268 2 267 3 0 385 0 385 -267 3 -268 2 0 -390z
m500 0 l0 -250 -70 0 -70 0 0 84 0 85 -47 48 c-27 27 -69 63 -95 81 l-48 33 0
-166 0 -165 -70 0 -70 0 0 245 0 245 78 0 c69 0 83 -3 124 -29 25 -16 65 -46
87 -66 l41 -37 0 71 0 71 70 0 70 0 0 -250z"/>
<path d="M3307 983 c-4 -3 -7 -179 -7 -390 l0 -383 270 0 270 0 0 390 0 390
-263 0 c-145 0 -267 -3 -270 -7z m453 -193 l0 -60 -60 0 -60 0 0 -190 0 -190
-70 0 -70 0 0 190 0 189 -57 3 -58 3 -3 44 c-5 74 -14 71 193 71 l185 0 0 -60z"/>
</g>
</svg>
