<?xml version="1.0" standalone="no"?>
<!DOCTYPE svg PUBLIC "-//W3C//DTD SVG 20010904//EN"
 "http://www.w3.org/TR/2001/REC-SVG-20010904/DTD/svg10.dtd">
<svg version="1.0" xmlns="http://www.w3.org/2000/svg"
 width="3840.000000pt" height="2160.000000pt" viewBox="0 0 3840.000000 2160.000000"
 preserveAspectRatio="xMidYMid meet">

<g transform="translate(0.000000,2160.000000) scale(0.100000,-0.100000)"
fill="#000000" stroke="none">
<path d="M10899 12446 c-2 -2 -51 -7 -109 -10 -225 -14 -383 -29 -455 -42 -11
-2 -58 -11 -105 -20 -396 -74 -646 -231 -765 -479 -62 -129 -85 -247 -85 -432
0 -619 319 -927 1054 -1018 182 -23 332 -32 551 -34 330 -2 468 -24 563 -87
116 -77 136 -240 41 -335 -84 -84 -188 -108 -497 -116 -249 -6 -608 9 -902 38
-298 29 -397 39 -415 43 -11 3 -42 8 -70 11 -27 4 -79 11 -115 16 -118 16
-158 12 -185 -17 l-25 -27 0 -308 c0 -373 -9 -350 140 -380 52 -10 144 -25
205 -34 60 -8 119 -17 130 -19 71 -13 539 -54 765 -67 247 -14 1018 -20 1026
-8 3 5 40 9 82 9 78 1 303 16 357 25 17 2 75 11 130 20 106 15 112 17 190 35
431 104 672 323 736 670 15 82 15 363 0 454 -63 374 -295 610 -714 725 -101
28 -358 68 -482 77 -55 3 -116 8 -135 10 -19 2 -147 6 -285 10 -362 9 -465 27
-562 101 -74 56 -97 181 -51 271 40 79 128 125 293 155 78 14 525 13 685 -2
69 -6 211 -18 315 -26 105 -8 206 -17 225 -20 19 -3 58 -7 85 -10 28 -2 104
-9 170 -14 66 -6 182 -18 258 -28 136 -16 138 -16 165 4 50 37 52 48 52 351 0
309 -3 328 -58 356 -15 7 -97 25 -182 40 -133 22 -209 32 -455 60 -70 9 -296
25 -430 32 -71 4 -146 9 -165 11 -47 5 -966 13 -971 9z"/>
<path d="M27139 12446 c-2 -2 -67 -6 -144 -9 -194 -9 -376 -25 -470 -43 -11
-2 -56 -11 -99 -19 -413 -79 -681 -274 -775 -565 -45 -139 -50 -203 -51 -619
l0 -394 37 6 c21 4 103 11 183 17 80 6 165 13 190 15 72 8 635 25 885 26 127
1 256 4 287 8 l58 6 -68 71 c-541 568 -802 871 -802 929 0 15 52 1 91 -24 112
-75 441 -368 760 -678 92 -90 170 -163 173 -163 3 0 6 146 6 325 0 391 21
1028 37 1093 l5 22 -149 0 c-82 0 -152 -2 -154 -4z"/>
<path d="M27544 12438 c14 -42 33 -498 42 -1036 4 -210 11 -381 15 -380 4 2
90 82 190 179 541 518 819 743 819 665 0 -55 -253 -348 -758 -876 l-110 -115
62 -6 c33 -4 160 -7 281 -8 253 -2 827 -18 889 -26 22 -3 106 -10 186 -15 80
-6 162 -13 183 -17 l39 -6 -5 419 c-5 427 -8 468 -49 589 -101 305 -365 490
-810 570 -46 8 -92 16 -103 19 -78 16 -366 36 -728 51 -120 6 -146 4 -143 -7z"/>
<path d="M31320 12448 c-3 -3 -72 -8 -155 -12 -209 -8 -409 -26 -500 -42 -11
-2 -47 -9 -80 -15 -309 -56 -523 -154 -667 -307 -147 -156 -206 -331 -206
-612 0 -226 43 -412 130 -557 39 -67 154 -187 221 -232 233 -158 606 -243
1119 -256 472 -12 482 -13 613 -51 112 -33 184 -120 185 -223 0 -127 -89 -211
-260 -247 -163 -33 -710 -28 -1140 11 -153 14 -487 51 -545 59 -248 38 -283
36 -313 -21 -8 -15 -12 -112 -12 -320 0 -364 -7 -344 140 -374 52 -10 142 -25
200 -34 58 -8 121 -17 140 -19 126 -18 539 -55 760 -67 226 -13 1011 -20 1025
-9 6 4 84 10 175 14 134 6 423 39 515 60 579 128 826 402 825 911 -1 305 -94
557 -263 712 -143 130 -368 232 -602 272 -175 30 -245 39 -345 46 -52 4 -117
9 -145 11 -27 3 -178 9 -335 14 -157 5 -307 14 -335 20 -59 12 -126 42 -170
76 -81 62 -101 209 -40 295 61 85 174 123 409 140 159 12 479 2 681 -21 44 -5
123 -11 175 -15 52 -3 142 -10 200 -16 162 -16 177 -18 300 -29 63 -5 177 -17
253 -27 136 -16 138 -16 165 4 50 37 52 48 52 351 0 311 -3 327 -59 357 -41
21 -305 62 -641 100 -80 9 -282 24 -415 31 -71 4 -148 8 -170 10 -71 6 -880
17 -885 12z"/>
<path d="M1308 12411 c-65 -13 -70 -22 -65 -130 3 -76 10 -113 34 -176 17 -44
50 -132 73 -195 23 -63 52 -142 65 -175 12 -33 50 -134 83 -225 33 -91 93
-250 132 -355 75 -203 159 -429 265 -720 36 -99 70 -189 75 -200 6 -11 37 -94
69 -185 33 -91 69 -190 81 -220 12 -30 41 -109 65 -175 24 -66 56 -151 70
-190 15 -38 34 -90 42 -115 31 -90 111 -168 195 -190 23 -7 262 -9 640 -8 577
3 605 4 643 23 50 24 90 60 115 101 11 17 54 123 96 235 41 112 78 211 81 219
3 8 16 42 28 75 63 172 147 398 170 460 40 106 136 368 210 570 36 99 70 189
75 200 5 11 37 94 70 185 32 91 91 251 130 355 256 688 265 713 256 749 -12
50 -56 83 -117 91 -30 3 -308 5 -619 3 -640 -3 -601 2 -690 -88 -49 -48 -61
-76 -179 -400 -33 -91 -101 -275 -151 -410 -50 -135 -99 -266 -108 -292 -9
-27 -21 -48 -27 -48 -13 0 -29 32 -50 95 -8 22 -25 69 -38 105 -14 36 -44 117
-67 180 -24 63 -53 142 -65 175 -12 33 -41 110 -63 170 -22 61 -52 142 -67
180 -14 39 -35 93 -45 121 -41 115 -116 184 -222 204 -58 11 -1133 12 -1190 1z"/>
<path d="M5485 12415 c-5 -2 -22 -6 -37 -9 -40 -9 -88 -54 -109 -104 -18 -42
-19 -96 -19 -1516 0 -1319 2 -1477 16 -1519 18 -54 58 -92 112 -107 25 -6 613
-10 1783 -10 l1746 0 27 21 26 20 0 329 0 329 -29 20 c-29 21 -34 21 -1085 21
l-1057 0 -24 25 c-14 13 -25 30 -25 37 -3 224 0 400 9 415 25 48 11 47 575 49
292 1 537 2 544 3 6 0 21 10 32 21 19 19 20 33 20 340 l0 321 -25 24 -24 25
-539 0 -539 0 -27 25 c-14 13 -26 30 -26 37 -1 7 -1 103 -1 213 l-1 200 31 27
31 28 1058 0 1059 0 21 23 c22 23 22 29 22 341 0 195 -4 325 -10 336 -6 11
-27 24 -48 30 -25 7 -597 10 -1757 9 -946 0 -1724 -2 -1730 -4z"/>
<path d="M13555 12413 c-11 -3 -30 -14 -42 -26 -23 -20 -23 -21 -23 -339 l0
-319 25 -24 24 -25 531 0 530 0 2 -1182 c0 -651 2 -1187 3 -1193 10 -70 58
-127 123 -145 23 -6 252 -10 627 -10 l591 0 44 23 c35 17 51 34 73 76 l27 55
0 1188 0 1188 530 0 c514 0 531 1 550 20 11 11 22 30 25 42 3 13 5 159 3 325
-3 300 -3 303 -26 325 l-23 23 -1787 1 c-983 1 -1796 0 -1807 -3z"/>
<path d="M17661 12410 c-76 -18 -131 -86 -132 -164 0 -28 -1 -704 -1 -1502 0
-1097 2 -1460 11 -1487 15 -44 58 -83 109 -97 23 -6 252 -10 627 -10 l591 0
44 23 c35 17 51 34 73 76 l27 55 0 527 0 528 24 28 24 27 533 1 c294 1 545 5
557 9 47 16 52 52 52 361 0 304 -4 330 -49 355 -13 6 -207 10 -554 10 l-534 0
-27 25 -26 24 0 213 c0 117 4 218 8 224 4 5 18 18 32 27 23 16 105 17 1076 17
1048 0 1051 0 1078 21 l26 20 0 323 0 323 -26 24 -26 24 -1741 2 c-958 0
-1757 -3 -1776 -7z"/>
<path d="M21694 12409 c-51 -12 -110 -68 -124 -118 -6 -23 -10 -561 -10 -1511
1 -1566 0 -1519 47 -1572 10 -11 36 -29 58 -39 37 -17 79 -19 636 -19 493 0
602 2 630 14 36 15 79 56 98 93 8 15 11 189 11 587 0 532 1 566 18 567 50 4
239 4 252 1 10 -2 29 -41 49 -95 18 -51 46 -126 61 -167 95 -258 115 -311 135
-365 12 -33 41 -112 65 -175 39 -105 73 -197 102 -275 31 -82 103 -150 184
-173 30 -9 206 -12 628 -12 626 0 640 1 665 48 17 33 13 123 -9 170 -10 23
-24 57 -29 75 -5 17 -33 93 -61 167 -28 74 -71 189 -95 255 -24 66 -53 145
-65 175 -12 30 -30 80 -40 110 -10 30 -42 116 -70 190 -83 218 -91 250 -60
250 6 0 48 21 93 47 105 61 229 182 282 278 152 271 168 697 37 965 -136 278
-452 438 -975 495 -78 8 -162 17 -187 20 -192 21 -2241 33 -2326 14z m1819
-753 c101 -19 192 -61 230 -106 66 -78 61 -213 -12 -285 -83 -85 -215 -114
-496 -112 l-190 2 -3 264 -2 264 192 -6 c108 -3 232 -12 281 -21z"/>
<path d="M33872 12405 c-18 -8 -37 -26 -42 -40 -6 -15 -10 -150 -10 -321 0
-245 3 -300 15 -324 9 -17 17 -31 18 -32 1 -2 245 -5 542 -8 l540 -5 5 -1210
5 -1210 23 -33 c50 -70 21 -67 687 -70 400 -2 612 0 636 7 52 16 88 48 110 98
18 43 19 88 19 1234 l0 1189 530 0 531 0 24 26 25 27 0 313 0 313 -24 28 -24
28 -1789 2 c-1527 2 -1793 0 -1821 -12z"/>
<path d="M25601 10358 c1 -327 3 -397 19 -480 72 -376 305 -571 815 -684 94
-21 407 -54 561 -59 104 -4 196 -9 204 -12 8 -3 64 -7 124 -9 l108 -3 -6 132
c-18 362 -26 652 -26 950 0 187 -4 327 -9 325 -5 -1 -89 -79 -187 -173 -99
-93 -215 -204 -259 -246 -203 -192 -461 -408 -521 -437 -25 -12 -37 -13 -45
-5 -32 32 209 319 685 816 94 99 172 183 174 187 2 5 -41 8 -95 8 -231 -2
-1098 24 -1233 38 -25 2 -74 6 -110 9 -84 6 -160 15 -183 22 -17 4 -18 -15
-16 -379z"/>
<path d="M29315 10729 c-27 -5 -84 -11 -125 -14 -41 -3 -88 -7 -105 -9 -16 -2
-106 -7 -200 -10 -93 -4 -197 -9 -230 -11 -33 -2 -251 -7 -485 -11 -234 -3
-427 -8 -429 -10 -3 -3 58 -68 135 -147 126 -129 201 -207 349 -368 70 -75
229 -260 296 -344 124 -154 116 -200 -17 -106 -136 96 -311 254 -833 748 l-76
72 -7 -347 c-8 -391 -26 -917 -35 -1005 l-6 -59 184 3 c101 1 189 6 194 10 6
3 79 9 163 13 128 6 423 42 497 61 11 2 45 11 75 18 276 70 492 210 599 391
51 85 91 207 107 326 15 113 21 795 7 803 -5 2 -30 0 -58 -4z"/>
</g>
</svg>
